<svg class='visually-hidden' width='0' height='0' aria-hidden='true' focusable='false' xmlns="http://www.w3.org/2000/svg">
<defs>
  <symbol width="100%" height="100%" viewBox="0 0 10 6" fill='none' stroke="#DA552F" id='icon-arrow'>
    <path d="M9 0.5L5 4.5L1 0.5"/>
  </symbol>
  <symbol width="100%" height="100%" viewBox="0 0 18 10" id='icon-car'>
    <path fill-rule="evenodd" clip-rule="evenodd" d="M9.31189 0.633895C10.954 1.01935 12.6548 1.91881 14.414 3.46059C15.5284 3.71759 16.5253 4.16732 17.4637 4.74551C18.0502 6.3517 18.1675 7.5722 17.757 8.53613H16.8187C16.9359 8.34341 16.9946 8.0864 16.9946 7.8294C16.9946 6.73721 16.1736 5.83775 15.1766 5.83775C14.1796 5.83775 13.3586 6.73721 13.3586 7.8294C13.3586 8.0864 13.3586 8.3434 13.4758 8.53613H4.26843C4.3271 8.34341 4.38568 8.0864 4.38568 7.8294C4.38568 6.73721 3.56463 5.83775 2.56766 5.83775C1.57068 5.83775 0.749638 6.73721 0.749638 7.8294C0.749638 8.0864 0.808311 8.3434 0.866886 8.53613H0.456364C-0.0714188 7.70094 -0.130087 6.80151 0.221766 5.77348C0.339014 3.71756 0.984144 2.23983 2.21569 1.34043V0.890698C4.7375 0.50524 7.08328 0.376697 9.31169 0.633694L9.31189 0.633895ZM2.80231 1.66178C2.91956 2.36851 3.09557 2.88251 3.33009 3.07524C6.73161 3.84625 10.2502 3.9747 13.769 3.65343C10.5434 1.21205 6.90754 0.505239 2.80231 1.66178ZM15.1767 4.2317C16.7601 4.48871 17.5225 5.19543 17.4639 6.22335C16.9361 5.96635 16.2323 5.32389 15.1767 4.2317Z"/>
    <path fill-rule="evenodd" clip-rule="evenodd" d="M2.56748 6.15908C1.68777 6.15908 1.04265 6.86581 1.04265 7.82954C1.04265 8.729 1.68777 9.5 2.56748 9.5C3.38853 9.5 4.09232 8.729 4.09232 7.82954C4.09232 6.86581 3.38853 6.15908 2.56748 6.15908ZM2.56748 6.73727C2.0397 6.73727 1.57051 7.25127 1.57051 7.82945C1.57051 8.40764 2.0397 8.85734 2.56748 8.85734C3.09527 8.85734 3.50576 8.40761 3.50576 7.82945C3.50576 7.2513 3.09524 6.73727 2.56748 6.73727Z"/>
    <path fill-rule="evenodd" clip-rule="evenodd" d="M15.1764 6.15908C14.2967 6.15908 13.6516 6.86581 13.6516 7.82954C13.6516 8.729 14.2967 9.5 15.1764 9.5C15.9974 9.5 16.7012 8.729 16.7012 7.82954C16.7012 6.86581 15.9974 6.15908 15.1764 6.15908ZM15.1764 6.73727C14.6486 6.73727 14.1794 7.25127 14.1794 7.82945C14.1794 8.40764 14.6486 8.85734 15.1764 8.85734C15.7042 8.85734 16.1147 8.40761 16.1147 7.82945C16.1147 7.2513 15.7041 6.73727 15.1764 6.73727Z"/>
    <path fill-rule="evenodd" clip-rule="evenodd" d="M7.20076 0.890867H6.73157V4.1033H7.55262L7.20076 0.890867Z"/>
  </symbol>
  <symbol width="100%" height="100%" viewBox="0 0 7 14" id='icon-man'>
    <path fill-rule="evenodd" clip-rule="evenodd" d="M5.90344 1.728C5.7987 2.57104 5.03002 3.16961 4.18651 3.06493C3.34292 2.96024 2.74403 2.19197 2.84876 1.34891C2.9535 0.505777 3.72218 -0.0927956 4.56577 0.0118822C5.40926 0.116567 6.00815 0.884837 5.90342 1.72797"/>
    <path fill-rule="evenodd" clip-rule="evenodd" d="M3.25651 3.31441L5.06442 3.55536C5.42603 3.55536 5.66703 3.91678 5.66703 4.27812C5.48622 5.72365 5.54649 6.62712 6.7518 7.5305C7.35441 8.01231 6.69152 8.91578 6.08891 8.43397C5.7273 8.19302 5.4863 7.89191 5.24523 7.59073C5.18496 7.95215 5.12469 8.31349 4.70288 8.43397C5.90818 9.75902 6.75187 11.4455 6.99287 13.1923C7.11341 14.0957 5.66711 14.2764 5.54657 13.373C5.42603 12.1081 4.88369 10.9035 4.10027 9.87955C3.55793 11.2648 2.8347 12.5298 1.87055 13.7343C1.26794 14.457 0.183179 13.5536 0.785791 12.8308C1.81028 11.5659 2.47317 10.1806 3.01551 8.73503C2.6539 8.37361 1.99102 7.95203 2.05128 7.47014L2.35263 5.0609C1.62948 5.66319 1.2076 6.38596 1.14733 7.4099C1.08706 8.1929 -0.0579714 8.13267 0.00229735 7.34966C0.122837 5.42225 1.2076 4.21756 2.83473 3.3744C2.95527 3.31416 3.07581 3.25393 3.25661 3.31416L3.25651 3.31441Z"/>
  </symbol>
  <symbol width="100%" height="100%" viewBox="0 0 19 17" id='icon-heart'>
    <path d="M13.6214 0C12.0554 0 10.5524 0.750409 9.57141 1.93624C8.59041 0.750409 7.08741 0 5.52141 0C2.74941 0 0.571411 2.24196 0.571411 5.09537C0.571411 8.59727 3.63141 11.4507 8.26641 15.7864L9.57141 17L10.8764 15.7771C15.5114 11.4507 18.5714 8.59727 18.5714 5.09537C18.5714 2.24196 16.3934 0 13.6214 0ZM9.66141 14.406L9.57141 14.4986L9.48141 14.406C5.19741 10.4131 2.37141 7.77275 2.37141 5.09537C2.37141 3.24251 3.72141 1.85286 5.52141 1.85286C6.90741 1.85286 8.25741 2.77003 8.73441 4.03924H10.4174C10.8854 2.77003 12.2354 1.85286 13.6214 1.85286C15.4214 1.85286 16.7714 3.24251 16.7714 5.09537C16.7714 7.77275 13.9454 10.4131 9.66141 14.406Z"/>
  </symbol>
  <symbol width="100%" height="100%" viewBox="0 0 18 17" id='icon-search'>
    <path d="M12.4354 10.6918H11.6676L11.3954 10.4294C12.348 9.32133 12.9214 7.88279 12.9214 6.3179C12.9214 2.82847 10.093 0 6.60354 0C3.11412 0 0.285645 2.82847 0.285645 6.3179C0.285645 9.80732 3.11412 12.6358 6.60354 12.6358C8.16844 12.6358 9.60697 12.0623 10.715 11.1098L10.9775 11.3819V12.1498L15.8374 17L17.2856 15.5517L12.4354 10.6918ZM6.60354 10.6918C4.1833 10.6918 2.22961 8.73814 2.22961 6.3179C2.22961 3.89766 4.1833 1.94397 6.60354 1.94397C9.02378 1.94397 10.9775 3.89766 10.9775 6.3179C10.9775 8.73814 9.02378 10.6918 6.60354 10.6918Z"/>
  </symbol>
  <symbol width="100%" height="100%" viewBox="0 0 8 8" fill="none" stroke="#A3A5BD" id='icon-slider'>
    <path d="M1.32031 0V8"/>
    <path d="M1.32031 0V8"/>
    <path d="M4.32031 0V8"/>
    <path d="M4.32031 0V8"/>
    <path d="M7.32031 0V8"/>
    <path d="M7.32031 0V8"/>
  </symbol>
</defs>
</svg>