<svg width="7" height="14" viewBox="0 0 7 14" fill="none" xmlns="http://www.w3.org/2000/svg">
<path fill-rule="evenodd" clip-rule="evenodd" d="M5.90344 1.728C5.7987 2.57104 5.03002 3.16961 4.18651 3.06493C3.34292 2.96024 2.74403 2.19197 2.84876 1.34891C2.9535 0.505777 3.72218 -0.0927956 4.56577 0.0118822C5.40926 0.116567 6.00815 0.884837 5.90342 1.72797" fill="#B4B4B4"/>
<path fill-rule="evenodd" clip-rule="evenodd" d="M3.25651 3.31441L5.06442 3.55536C5.42603 3.55536 5.66703 3.91678 5.66703 4.27812C5.48622 5.72365 5.54649 6.62712 6.7518 7.5305C7.35441 8.01231 6.69152 8.91578 6.08891 8.43397C5.7273 8.19302 5.4863 7.89191 5.24523 7.59073C5.18496 7.95215 5.12469 8.31349 4.70288 8.43397C5.90818 9.75902 6.75187 11.4455 6.99287 13.1923C7.11341 14.0957 5.66711 14.2764 5.54657 13.373C5.42603 12.1081 4.88369 10.9035 4.10027 9.87955C3.55793 11.2648 2.8347 12.5298 1.87055 13.7343C1.26794 14.457 0.183179 13.5536 0.785791 12.8308C1.81028 11.5659 2.47317 10.1806 3.01551 8.73503C2.6539 8.37361 1.99102 7.95203 2.05128 7.47014L2.35263 5.0609C1.62948 5.66319 1.2076 6.38596 1.14733 7.4099C1.08706 8.1929 -0.0579714 8.13267 0.00229735 7.34966C0.122837 5.42225 1.2076 4.21756 2.83473 3.3744C2.95527 3.31416 3.07581 3.25393 3.25661 3.31416L3.25651 3.31441Z" fill="#B4B4B4"/>
</svg>
