<svg width="41" height="37" viewBox="0 0 41 37" fill="none" xmlns="http://www.w3.org/2000/svg">
<path d="M28.27 3.90723V21.9268L26.3266 21.7358V3.27049L13.0009 0V36.2764C15.188 36.2301 17.4737 36.2012 19.8349 36.2012C22.08 36.2012 24.2439 36.2301 26.3266 36.2707V22.3783L28.27 22.5693V36.3112C33.1431 36.4443 37.4129 36.6874 40.6268 37V6.82462L28.27 3.90723Z" fill="#5E6076"/>
<path d="M7.19944 2.89424V21.7589L5.256 22.0599V10.8708H5.22119V3.8725L0 6.56993V36.9132C1.55475 36.7743 3.30675 36.6585 5.22119 36.5543V33.5095V22.6793L7.16464 22.3783V36.4675C8.99205 36.3922 10.9181 36.3285 12.966 36.2822V0L7.19944 2.89424Z" fill="#121327"/>
</svg>
