<svg width="146" height="30" viewBox="0 0 146 30" fill="none" xmlns="http://www.w3.org/2000/svg">
<path d="M13.0047 0.77832V12.6042H9.54135L4.80167 7.23248V12.6042H0.694336V0.77832H4.15772L8.9032 6.15003V0.77832H13.0047Z" fill="#121327"/>
<path d="M23.0058 9.28739C23.4311 9.04351 23.7805 8.68689 24.0152 8.25704C24.272 7.77677 24.3999 7.23835 24.3865 6.69415C24.3999 6.14995 24.272 5.61154 24.0152 5.13126C23.782 4.70032 23.4323 4.34333 23.0058 4.10091C22.5714 3.86173 22.0834 3.73628 21.5874 3.73628C21.0913 3.73628 20.6033 3.86173 20.1689 4.10091C19.7424 4.34333 19.3927 4.70032 19.1595 5.13126C18.9007 5.611 18.7707 6.14944 18.7824 6.69415C18.7707 7.23887 18.9007 7.77731 19.1595 8.25704C19.3942 8.68689 19.7436 9.04351 20.1689 9.28739C20.6033 9.52658 21.0913 9.65202 21.5874 9.65202C22.0834 9.65202 22.5714 9.52658 23.0058 9.28739ZM17.9644 12.0832C16.9374 11.5962 16.0673 10.8323 15.4525 9.87782C14.8425 8.9287 14.5257 7.82154 14.5416 6.69415C14.5249 5.56485 14.8417 4.45561 15.4525 3.5047C16.0705 2.55302 16.9397 1.7899 17.9644 1.29929C19.1005 0.776871 20.3365 0.506348 21.5874 0.506348C22.8382 0.506348 24.0742 0.776871 25.2103 1.29929C26.2328 1.79313 27.1012 2.55556 27.7222 3.5047C28.333 4.45561 28.6498 5.56485 28.6331 6.69415C28.649 7.82154 28.3322 8.9287 27.7222 9.87782C27.1046 10.8299 26.2353 11.5931 25.2103 12.0832C24.0742 12.6056 22.8382 12.8762 21.5874 12.8762C20.3365 12.8762 19.1005 12.6056 17.9644 12.0832Z" fill="#121327"/>
<path d="M43.0668 0.77832L37.7818 12.6042H33.6455L28.3663 0.77832H32.8971L35.8732 7.68977L38.9247 0.77832H43.0668Z" fill="#121327"/>
<path d="M51.2642 9.28736C51.6896 9.04347 52.039 8.68685 52.2737 8.257C52.5305 7.77673 52.6584 7.23832 52.645 6.69411C52.6584 6.14991 52.5305 5.6115 52.2737 5.13122C52.0405 4.70028 51.6907 4.34329 51.2642 4.10087C50.8299 3.86169 50.3419 3.73624 49.8458 3.73624C49.3497 3.73624 48.8617 3.86169 48.4274 4.10087C48.0009 4.34329 47.6512 4.70028 47.418 5.13122C47.1591 5.61096 47.0292 6.1494 47.0409 6.69411C47.0292 7.23883 47.1591 7.77727 47.418 8.257C47.6527 8.68685 48.002 9.04347 48.4274 9.28736C48.8617 9.52654 49.3497 9.65199 49.8458 9.65199C50.3419 9.65199 50.8299 9.52654 51.2642 9.28736ZM46.2229 12.0832C45.1962 11.5932 44.325 10.8301 43.7051 9.87778C43.0973 8.92767 42.7808 7.82118 42.7943 6.69411C42.7797 5.56508 43.0963 4.45642 43.7051 3.50466C44.3284 2.5553 45.1987 1.79296 46.2229 1.29925C47.3579 0.776944 48.593 0.50647 49.8429 0.50647C51.0928 0.50647 52.3279 0.776944 53.4629 1.29925C54.4978 1.78619 55.3772 2.54953 56.0039 3.50466C56.6147 4.45557 56.9314 5.56481 56.9147 6.69411C56.9306 7.8215 56.6139 8.92866 56.0039 9.87778C55.3868 10.8325 54.5148 11.5963 53.4861 12.0832C52.3511 12.6055 51.116 12.876 49.8661 12.876C48.6162 12.876 47.3811 12.6055 46.2461 12.0832" fill="#121327"/>
<path d="M60.0656 12.5232C59.2184 12.3539 58.4024 12.0552 57.6465 11.6375L59.004 8.74328C59.6351 9.08465 60.3052 9.34896 60.9996 9.53052C61.6914 9.72117 62.4053 9.82043 63.1229 9.82573C63.5451 9.84773 63.9678 9.79281 64.3702 9.66365C64.4757 9.6333 64.5689 9.57054 64.6366 9.48429C64.7043 9.39803 64.7431 9.29268 64.7473 9.18321C64.7473 8.9343 64.5849 8.74907 64.2542 8.60436C63.7268 8.43171 63.1879 8.29631 62.6414 8.19917C61.8262 8.04777 61.022 7.84279 60.2339 7.58559C59.5934 7.36964 59.0171 6.99757 58.5573 6.50314C58.0607 5.94368 57.8044 5.21188 57.8437 4.46559C57.8395 3.73679 58.0715 3.02615 58.5051 2.43962C59.0098 1.78351 59.6922 1.28535 60.4717 1.00408C61.4907 0.630079 62.5713 0.451365 63.6567 0.477325C64.5046 0.476283 65.3504 0.563584 66.1802 0.737808C66.9402 0.898667 67.6743 1.16359 68.3615 1.52504L67.0968 4.41928C66.0184 3.86662 64.8281 3.56576 63.616 3.53943C62.5312 3.53943 61.9917 3.78834 61.9917 4.28036C61.9917 4.51769 62.1541 4.69134 62.4732 4.8129C62.9926 4.98003 63.524 5.10774 64.0627 5.19494C64.879 5.32597 65.6839 5.51949 66.4703 5.77379C67.1248 5.9878 67.7151 6.36192 68.1875 6.86203C68.4367 7.13503 68.6292 7.45469 68.7536 7.80247C68.8781 8.15024 68.9322 8.51922 68.9127 8.888C68.916 9.61488 68.6841 10.3234 68.2513 10.9082C67.7424 11.5624 67.0587 12.06 66.2789 12.3437C65.261 12.7226 64.1799 12.9033 63.0939 12.8763C62.0745 12.8709 61.0588 12.7525 60.0656 12.5232Z" fill="#121327"/>
<path d="M80.526 9.59997V12.6042H70.1416V0.77832H80.2939V3.78833H74.2837V5.17178H79.563V8.04287H74.2837V9.59997H80.526Z" fill="#121327"/>
<path d="M82.1504 0.77832H86.3621V9.51314H92.001V12.6042H82.1504V0.77832Z" fill="#121327"/>
<path d="M97.3739 0.77832H93.1621V12.6042H97.3739V0.77832Z" fill="#121327"/>
<path d="M109.782 9.59997V12.6042H99.4033V0.77832H109.55V3.78833H103.54V5.17178H108.819V8.04287H103.54V9.59997H109.782Z" fill="#121327"/>
<path d="M6.69291 26.4155C7.48389 26.4574 8.26071 26.1942 8.8626 25.6804C9.13962 25.415 9.35567 25.0928 9.49589 24.7361C9.6361 24.3793 9.69713 23.9965 9.67479 23.6139C9.69721 23.2305 9.63623 22.8468 9.49604 22.4891C9.35585 22.1314 9.13976 21.8082 8.8626 21.5416C8.26301 21.0216 7.48667 20.7503 6.69291 20.7833H4.95251V26.4155H6.69291ZM0.694336 17.6749H6.84954C8.11482 17.6484 9.37108 17.8931 10.5334 18.3927C11.5598 18.8253 12.4357 19.5502 13.0515 20.4768C13.6674 21.4034 13.9958 22.4905 13.9958 23.6023C13.9958 24.7141 13.6674 25.8013 13.0515 26.7279C12.4357 27.6544 11.5598 28.3793 10.5334 28.812C9.37023 29.3088 8.11457 29.5535 6.84954 29.5297H0.694336V17.6749Z" fill="#121327"/>
<path d="M25.8141 26.4966V29.5066H15.4297V17.6749H25.582V20.6849H19.5718V22.0684H24.851V24.9395H19.5718V26.4966H25.8141Z" fill="#121327"/>
<path d="M40.6009 17.6749L35.3217 29.5066H31.1854L25.9004 17.6749H30.437L33.4131 24.5864L36.4646 17.6749H40.6009Z" fill="#121327"/>
<path d="M51.398 26.4966V29.5066H41.0137V17.6749H51.166V20.6849H45.15V22.0684H50.435V24.9395H45.15V26.4966H51.398Z" fill="#121327"/>
<path d="M53.0166 17.6749H57.2284V26.4098H62.8673V29.5066H53.0166V17.6749Z" fill="#121327"/>
<path d="M71.8127 26.184C72.2402 25.9409 72.5916 25.5842 72.8279 25.1536C73.0759 24.6698 73.2052 24.1341 73.2052 23.5907C73.2052 23.0473 73.0759 22.5116 72.8279 22.0278C72.5947 21.5969 72.2449 21.2399 71.8185 20.9975C71.3841 20.7583 70.8961 20.6328 70.4 20.6328C69.9039 20.6328 69.4159 20.7583 68.9816 20.9975C68.5563 21.2414 68.2069 21.598 67.9722 22.0278C67.7274 22.5126 67.5998 23.0479 67.5998 23.5907C67.5998 24.1336 67.7274 24.6688 67.9722 25.1536C68.2086 25.5822 68.5575 25.9384 68.9816 26.184C69.4159 26.4231 69.9039 26.5486 70.4 26.5486C70.8961 26.5486 71.3841 26.4231 71.8185 26.184H71.8127ZM66.7771 28.9798C65.7511 28.4912 64.8814 27.7276 64.2651 26.7744C63.6712 25.8182 63.3565 24.7156 63.3565 23.5907C63.3565 22.4658 63.6712 21.3632 64.2651 20.407C64.8846 19.4565 65.7534 18.6937 66.7771 18.2016C67.9131 17.6792 69.1492 17.4087 70.4 17.4087C71.6509 17.4087 72.8869 17.6792 74.023 18.2016C75.0471 18.6953 75.9174 19.4577 76.5407 20.407C77.1347 21.3632 77.4494 22.4658 77.4494 23.5907C77.4494 24.7156 77.1347 25.8182 76.5407 26.7744C75.9208 27.7267 75.0496 28.4898 74.023 28.9798C72.8869 29.5022 71.6509 29.7727 70.4 29.7727C69.1492 29.7727 67.9131 29.5022 66.7771 28.9798Z" fill="#121327"/>
<path d="M86.002 23.1566C86.1477 23.0316 86.2623 22.8744 86.3368 22.6976C86.4113 22.5209 86.4436 22.3292 86.4313 22.1378C86.4428 21.9457 86.4101 21.7535 86.3357 21.5759C86.2612 21.3983 86.1471 21.2401 86.002 21.1133C85.6315 20.8438 85.1771 20.7145 84.7199 20.7486H83.1883V23.5213H84.7199C85.1771 23.5554 85.6315 23.4261 86.002 23.1566ZM88.0034 18.2133C88.7999 18.5304 89.4871 19.0713 89.9817 19.7704C90.4364 20.4756 90.6782 21.2964 90.6782 22.135C90.6782 22.9735 90.4364 23.7943 89.9817 24.4995C89.4886 25.2 88.801 25.7413 88.0034 26.0567C87.045 26.4392 86.0188 26.6243 84.9867 26.6008H83.1883V29.495H78.9766V17.6749H85.0099C86.0414 17.6526 87.0669 17.8356 88.0266 18.2133" fill="#121327"/>
<path d="M103.203 29.5066L103.168 24.1117L100.453 28.4415H98.5966L95.8874 24.297V29.5066H92.0527V17.6749H95.5103L99.577 23.9786L103.539 17.6749H107.003L107.038 29.5066H103.203Z" fill="#121327"/>
<path d="M119.453 26.4966V29.5066H109.074V17.6749H119.221V20.6849H113.211V22.0684H118.49V24.9395H113.211V26.4966H119.453Z" fill="#121327"/>
<path d="M133.383 17.6749V29.5066H129.925L125.18 24.1291V29.5066H121.078V17.6749H124.536L129.281 23.0524V17.6749H133.383Z" fill="#121327"/>
<path d="M138.133 20.766H134.473V17.6749H146V20.766H142.345V29.5066H138.133V20.766Z" fill="#121327"/>
</svg>
